<svg width="100" height="34" viewBox="0 0 100 34" fill="none" xmlns="http://www.w3.org/2000/svg">
<path d="M29.1797 0.742188C28.8047 0.914062 28.5625 1.16406 28.3984 1.54688C28.2969 1.80469 28.2812 3.0625 28.2812 12.6016V23.3594L28.4453 23.7031C28.5469 23.9062 28.7422 24.125 28.9297 24.25L29.25 24.4609L39.1172 24.4844L48.9844 24.5V24.9453V25.3828L42.9922 25.3359C39.7031 25.3047 33.4766 25.2812 29.1562 25.2812H21.3125L21.3359 23.6094L21.3672 21.9297L21.6016 21.8906C21.7344 21.8594 21.9844 21.75 22.1562 21.6406C23.4922 20.7734 23.0391 18.7969 21.4453 18.5312L21.1328 18.4766L21.1562 17.0234C21.1719 16.2188 21.1484 15.5391 21.1094 15.5C21.0625 15.4531 20.9297 15.4688 20.7734 15.5391C19.5625 16.0469 18.3594 19.4531 18.875 20.9141C19.1016 21.5547 19.75 22.1719 20.3984 22.375L20.8984 22.5312L20.9219 23.8438C20.9297 24.5625 20.9141 25.1797 20.8828 25.2109C20.8438 25.2422 18.9844 25.25 16.7422 25.2266L12.6562 25.1797V21.9453C12.6562 18.7891 12.6562 18.7188 12.8125 18.7188C13.1719 18.7188 13.8438 18.3828 14.2188 18.0156C14.7344 17.4922 14.9453 16.9297 14.9062 16.1406C14.8594 15.1875 14.3672 14.4297 13.5312 14.0156C12.2031 13.375 9.1875 14.2891 8.53906 15.5391C8.35156 15.8984 8.4375 16.4375 8.74219 16.8672C9.24219 17.5625 10.5703 18.3516 11.6953 18.625L12.2656 18.7578V21.9766V25.2031H8.47656H4.6875L2.40625 26.6172L0.117188 28.0312L0.140625 30.7188L0.164062 33.4062H50.0391H99.9219V30.7266V28.0469L98.2266 26.7812L96.5234 25.5156H93.2344C91.4297 25.5156 89.3594 25.4922 88.6484 25.4609L87.3438 25.4141V22.0625V18.7188H87.5469C87.8359 18.7188 88.8828 18.3516 89.3359 18.0938C89.8984 17.7656 90.3594 17.3516 90.6016 16.9453C91.1562 16 90.6094 15.0312 89.1094 14.3047C87.2422 13.4062 85.6719 13.7422 84.9141 15.2031C84.7578 15.5 84.7266 15.6719 84.7266 16.2578C84.7266 16.8672 84.7578 17.0156 84.9375 17.3594C85.2422 17.9375 85.8438 18.4531 86.4375 18.6328L86.9141 18.7812L86.9375 22.1094L86.9531 25.4375H82.9609H78.9688L78.9922 23.7188C79.0156 22.6016 79 22 78.9453 22C78.9062 21.9922 79.0547 21.9297 79.2812 21.8516C80.0312 21.5938 80.4609 21 80.4688 20.2109C80.4688 19.4062 79.9219 18.75 79.1016 18.5547L78.7109 18.4688V17.2422C78.7109 16.5234 78.7422 16 78.7891 15.9688C78.9609 15.8438 78.5391 15.9141 78.3203 16.0469C77.2812 16.6875 76.2969 18.6562 76.2969 20.0859C76.3047 20.6094 76.3359 20.7812 76.5078 21.1172C76.8828 21.8359 77.5156 22.3359 78.2266 22.4531L78.5547 22.5156L78.5781 23.9844L78.5938 25.4531L65.1406 25.3984C57.7344 25.3672 51.6484 25.3125 51.6172 25.2812C51.5781 25.25 51.5625 25.0703 51.5781 24.8828L51.6016 24.5391L61.3438 24.5L71.0781 24.4609L71.3828 24.2188C71.5469 24.0859 71.75 23.8594 71.8359 23.7109C71.9922 23.4453 71.9922 23.3047 71.9922 12.5859V1.72656L71.8281 1.41406C71.7422 1.24219 71.5156 0.992188 71.3359 0.867188L71 0.632812L50.25 0.617188C30.2031 0.59375 29.4844 0.601562 29.1797 0.742188Z" fill="white"/>
</svg>
