<svg width="88" height="50" viewBox="0 0 88 50" fill="none" xmlns="http://www.w3.org/2000/svg">
<path d="M2.01438 0.880356C0.811253 2.18412 0.240628 3.03761 0.0618777 3.81718C-0.0137472 4.11288 -0.00687225 4.24729 0.0962528 4.66396C0.199378 5.08735 0.268128 5.22176 0.563753 5.55778C0.756253 5.77283 0.948753 5.961 0.990003 5.97444C1.0725 6.00132 2.26188 6.96235 2.37188 7.09676C2.5025 7.24461 2.9425 7.38573 3.43063 7.43278C3.89813 7.4731 3.905 7.47982 3.94625 7.69487C3.98063 7.84272 3.91875 8.1317 3.74688 8.64245C3.61625 9.04568 3.50625 9.39514 3.50625 9.4153C3.50625 9.43546 3.3825 9.58331 3.23813 9.73788C3.08688 9.89245 2.94938 10.1008 2.92875 10.1882C2.90125 10.2822 2.74313 10.6586 2.57813 11.0148C2.41313 11.3777 2.2 11.9422 2.09688 12.2715C1.83563 13.1519 1.88375 13.5752 2.475 15.3898C3.01125 17.0228 3.56813 18.75 4.07 20.3293C5.19063 23.8441 6.13938 26.7339 7.26 30.0201C7.84438 31.7473 8.38063 33.3602 8.4425 33.6021C8.525 33.918 8.5525 34.3548 8.5525 35.215C8.5525 36.5658 8.51125 36.8615 8.25688 37.0968C8.10563 37.2379 8.0025 37.2715 7.54875 37.2916L7.01938 37.3118L6.875 37.0296C6.7925 36.8683 6.75125 36.7003 6.77188 36.6398C6.79938 36.5726 6.8475 36.4314 6.875 36.3239C6.90938 36.2097 6.99875 35.9543 7.07438 35.7527C7.28063 35.2285 7.27375 35.215 6.88188 35.215C6.58625 35.215 6.51063 35.2419 6.33188 35.4301C6.215 35.5511 6.11875 35.6855 6.11875 35.7258C6.11875 35.7728 6.03625 35.9812 5.94 36.1895C5.7475 36.5994 5.56875 37.3656 5.56875 37.7822C5.56875 38.0779 5.69938 38.2191 6.01563 38.2796C6.14625 38.2997 6.25625 38.3535 6.25625 38.3871C6.25625 38.4744 7.84438 38.3938 7.93375 38.2997C7.975 38.2661 8.15375 38.2392 8.3325 38.2392C8.62125 38.2392 8.69 38.2123 8.90313 37.9839C9.05438 37.8226 9.14375 37.668 9.14375 37.547C9.14375 37.211 9.295 36.754 9.42563 36.6734C9.50125 36.6263 9.55625 36.5188 9.55625 36.4247C9.55625 36.3239 9.60438 36.1895 9.65938 36.1156C9.71438 36.0484 9.7625 35.9207 9.7625 35.8333C9.7625 35.7527 9.79688 35.6855 9.83813 35.6855C9.9 35.6855 9.90688 35.5175 9.8725 35.0941C9.85188 34.7715 9.81063 34.1734 9.79 33.7701C9.7625 33.3602 9.72125 32.9973 9.69375 32.9637C9.66625 32.9234 9.625 32.7218 9.5975 32.5067C9.57688 32.2984 9.50813 31.9959 9.44625 31.8347C9.24 31.2836 9.00625 30.336 9.00625 30.0269C9.00625 29.7782 8.97188 29.6841 8.86875 29.6236C8.79313 29.5766 8.73125 29.4959 8.73125 29.4422C8.73125 29.3884 8.6075 28.9852 8.46313 28.5349C8.2225 27.8226 8.07125 27.3051 7.83063 26.4113C7.79625 26.2836 7.73438 26.0282 7.7 25.8468C7.65875 25.672 7.58313 25.4368 7.52813 25.3293C7.47313 25.2285 7.425 25.0672 7.425 24.9798C7.425 24.8857 7.38375 24.711 7.32875 24.59C7.27375 24.4623 7.21188 24.2271 7.18438 24.0591C7.16375 23.8911 7.08125 23.6357 7.01938 23.4879C6.95063 23.34 6.86813 23.1115 6.84063 22.9839C6.82 22.8562 6.7375 22.5806 6.66875 22.379C6.6 22.1774 6.51063 21.8414 6.46938 21.6398C6.435 21.4382 6.31125 20.9879 6.19438 20.6451C6.0775 20.3024 5.98125 19.9731 5.98125 19.9193C5.98125 19.8118 5.775 19.1398 5.59625 18.6828C5.54813 18.5551 5.49313 18.3266 5.4725 18.1787C5.4175 17.789 5.37625 17.6546 5.18375 17.2177C5.12875 17.0968 5.0875 16.8951 5.0875 16.7742C5.0875 16.633 5.04625 16.5322 4.98438 16.5054C4.92938 16.4852 4.88125 16.3978 4.88125 16.3105C4.88125 16.2164 4.84 16.0416 4.785 15.9207C4.73 15.793 4.65438 15.4704 4.61313 15.2016C4.57188 14.9395 4.48938 14.6035 4.43438 14.4623C4.08375 13.6021 3.96 10.3965 4.26938 10.215C4.43438 10.1142 4.82625 10.0672 4.90188 10.1411C4.95688 10.1949 4.93625 10.4771 4.81938 11.1492C4.72313 11.6935 4.675 12.1774 4.7025 12.3252C4.72313 12.4597 4.76438 12.6747 4.785 12.8024C4.80563 12.9301 4.8675 13.0712 4.9225 13.1115C4.9775 13.1519 5.01875 13.2258 5.01875 13.2661C5.01875 13.3064 5.1975 13.4408 5.4175 13.5618C5.63063 13.6828 5.9675 13.8709 6.16 13.9785C6.45563 14.1532 6.6 14.1868 7.0675 14.207C7.60375 14.2339 7.63813 14.2406 8.73813 14.8051C10.7525 15.8333 10.505 15.7661 12.9594 15.961C14.4238 16.0752 15.4138 16.2298 15.7438 16.3978C15.9981 16.5255 16.9263 16.6935 17.325 16.6868C17.8681 16.6734 18.4044 16.586 18.5625 16.4785C18.7688 16.3373 19.5731 16.1089 19.6694 16.1626C19.7038 16.1895 19.7313 17.1169 19.7313 18.4341C19.7313 20.2486 19.7588 20.8468 19.8688 21.6532C19.9375 22.1976 20.0338 23.1048 20.075 23.6693C20.1163 24.2339 20.185 24.8051 20.2194 24.9328C20.2606 25.0605 20.3156 25.4234 20.35 25.7392C20.515 27.2312 20.57 27.6075 20.6594 27.8898C20.7144 28.0578 20.79 28.5618 20.8313 29.0054C20.8725 29.4556 20.9344 29.9261 20.9688 30.047C21.0031 30.1747 21.065 30.5443 21.0994 30.8804C21.2025 31.7473 21.615 34.3683 21.725 34.8521C21.7594 35.0067 21.8075 35.383 21.835 35.6922C21.8763 36.2701 22.2956 38.8239 22.4125 39.2473C22.4469 39.375 22.5706 40.4166 22.6875 41.5658C22.8044 42.7083 22.9763 44.3615 23.0725 45.2285C23.3131 47.3925 23.3475 47.9503 23.2513 47.8898C23.2031 47.8629 23.1688 47.789 23.1688 47.7218C23.1688 47.6546 23.1206 47.5605 23.0656 47.5134C23.0106 47.4664 22.9625 47.3857 22.9625 47.332C22.9625 47.2782 22.9144 47.1505 22.8594 47.043C22.77 46.8817 22.7081 46.8414 22.5156 46.8414C22.3919 46.8414 22.2613 46.8817 22.2269 46.922C22.0963 47.1304 22.275 48.9852 22.4469 49.1935C22.495 49.2473 22.5844 49.4086 22.6531 49.543C22.8525 49.9731 22.9969 50.0201 23.9869 49.9865C24.5438 49.9664 24.8531 49.9261 24.8738 49.8723C24.8875 49.832 24.9425 49.7984 24.9975 49.7984C25.0525 49.7984 25.0938 49.7513 25.0938 49.6908C25.0938 49.6304 25.1488 49.5699 25.2244 49.5497C25.355 49.5161 25.4375 49.254 25.575 48.3535C25.6163 48.0981 25.6988 47.836 25.7538 47.7755C25.8569 47.668 25.8844 47.1976 25.795 47.0699C25.7675 47.0296 25.6575 46.9556 25.5475 46.9019C25.1488 46.7137 25.1488 46.6935 25.2313 42.2715C25.3344 37.4059 25.4031 35.1209 25.4994 33.7029C25.5406 33.1115 25.6025 30.8602 25.6438 28.6962C25.6781 26.5322 25.7469 24.1734 25.7813 23.4543C25.8981 21.3373 25.9875 20.0403 26.0631 19.3212C26.0975 18.9516 26.1594 18.1519 26.2006 17.5403C26.235 16.9287 26.2969 16.3642 26.3313 16.2836C26.3931 16.1425 26.675 16.0618 26.675 16.1828C26.675 16.25 26.9638 16.3575 27.5138 16.4986C27.7819 16.5658 28.0569 16.6801 28.16 16.7742C28.2563 16.8683 28.3731 16.9287 28.4213 16.9153C28.4625 16.8951 28.545 16.922 28.6 16.9691C28.7169 17.0632 29.7894 17.1505 29.8856 17.0766C29.9131 17.0497 30.0644 16.9892 30.2156 16.9422C30.3669 16.8884 30.635 16.7809 30.8138 16.7002C30.9925 16.6196 31.2538 16.5255 31.3981 16.4986C31.5425 16.4785 31.7556 16.418 31.8656 16.3709C32.4088 16.1492 32.5944 16.1021 33.1719 16.0618C33.5156 16.0416 33.825 16.008 33.8594 15.9946C33.99 15.9476 36.6094 16.0752 36.7263 16.1357C36.7881 16.1693 37.0219 16.2231 37.2419 16.2634C37.9363 16.3777 38.0875 16.4113 38.0875 16.4718C38.0875 16.5524 40.0881 16.539 40.5281 16.4583C40.7206 16.4247 41.1331 16.3575 41.4563 16.3037C41.7794 16.25 42.4256 16.0618 42.9 15.8938C43.8831 15.5309 44.5844 15.4368 44.935 15.6115C45.045 15.6653 45.2719 15.7325 45.4438 15.7594C45.6156 15.7863 46.0625 15.9072 46.4406 16.0282C46.8463 16.1626 47.4238 16.2836 47.8363 16.3306C48.6475 16.4247 50.5588 16.3911 51.0125 16.2769C52.2088 15.9677 52.7725 15.9005 54.3675 15.8804C55.6119 15.8602 56.0313 15.8736 56.2581 15.9476C56.4163 16.0013 56.7806 16.1156 57.0625 16.1962C57.7775 16.4046 58.795 16.7943 58.9394 16.922C59.0425 17.0161 59.1113 17.0094 59.6269 16.875C60.3625 16.6801 61.4831 16.3575 61.875 16.2231C62.0469 16.1626 62.26 16.1089 62.3563 16.1021C62.5213 16.0954 62.5281 16.1089 62.5763 16.6666C62.7 18.2661 62.6106 20.7997 62.3219 23.7231C62.2669 24.2943 62.1912 25.2554 62.15 25.8602C62.1156 26.4583 62.0469 27.0161 62.0056 27.0968C61.9644 27.1707 61.9025 27.7083 61.8681 28.2863C61.7994 29.4892 61.71 30.3898 61.6069 30.9543C61.5656 31.1693 61.5312 31.5726 61.5312 31.8481C61.5312 32.1304 61.4831 32.7083 61.4281 33.1317C61.3662 33.5551 61.2906 34.3279 61.2562 34.8454C61.2219 35.3629 61.1463 36.2701 61.0844 36.8615C61.0294 37.4529 60.9538 38.2863 60.9125 38.7097C60.7544 40.4301 60.6994 41.0753 60.6031 42.0363C60.5481 42.5873 60.4519 43.5753 60.3969 44.2204C60.2594 45.7997 60.1769 46.2433 60.005 46.3978C59.895 46.4986 59.8812 46.5726 59.9156 46.7675C59.9431 46.9019 59.9981 47.0564 60.0462 47.1102C60.0944 47.164 60.1769 47.3589 60.225 47.547C60.3488 48.0175 60.7269 48.797 60.8988 48.9516C61.0225 49.0591 61.1394 49.0726 61.8338 49.0524C62.59 49.0255 62.6381 49.0121 62.81 48.8441C63.0713 48.5954 63.3256 47.8763 63.5319 46.8279C63.6281 46.3105 63.5731 46.1693 63.25 46.1693C63.03 46.1693 62.92 46.2836 62.6656 46.754C62.37 47.3253 62.315 47.3253 62.2188 46.7675C62.1569 46.4046 62.15 46.25 62.2119 46.1559C62.2531 46.0887 62.2875 45.8535 62.2875 45.625C62.2875 45.2755 62.425 44.4287 62.7 43.1115C62.7412 42.9234 62.8169 42.547 62.8719 42.2648C62.9269 41.9892 63.1125 41.3037 63.2775 40.7527C63.4494 40.2016 63.7244 39.1734 63.8894 38.4744C64.0612 37.7688 64.2538 37.0766 64.3156 36.9287C64.3844 36.7809 64.46 36.5994 64.4944 36.5255C64.5563 36.3709 64.7419 35.5981 64.8313 35.1478C64.8863 34.8387 65.1269 33.9785 66 30.9274C66.2613 29.9933 66.8388 27.836 67.2719 26.1357C67.7119 24.4287 68.1106 22.9502 68.1656 22.8427C68.2206 22.7419 68.2688 22.5269 68.2688 22.379C68.2688 22.2244 68.2962 22.0497 68.3306 21.9892C68.3856 21.8884 68.5163 20.3158 68.6606 18.0914C68.6813 17.715 68.7294 17.3857 68.7637 17.3656C68.7913 17.3454 68.8187 17.09 68.8187 16.7943C68.8187 16.4046 68.8394 16.2634 68.9081 16.2634C69.2175 16.2634 71.0944 16.9825 71.1975 17.1438C71.2663 17.2648 71.5206 17.1976 72.1394 16.9086C73.0331 16.4986 73.8994 16.2634 75.0062 16.129C76.2781 15.9744 76.8487 15.914 77.1031 15.8804C77.2544 15.8669 77.4744 15.8064 77.5912 15.7527C77.715 15.7056 77.935 15.6519 78.0863 15.6384C78.2375 15.625 78.4506 15.5443 78.5675 15.4637C78.6844 15.3898 78.8012 15.3226 78.8356 15.3226C78.87 15.3226 78.9731 15.2419 79.0694 15.1478C79.1588 15.0537 79.3994 14.8992 79.5919 14.8051C79.7913 14.711 80.0869 14.5228 80.245 14.3817C80.6438 14.0457 80.8431 13.9449 80.9394 14.039C81.1113 14.207 81.4069 14.1129 81.8262 13.7567C82.4519 13.2258 82.5687 12.9099 82.7681 11.1559L82.8231 10.6519L82.8369 11.2567C82.8438 11.9959 82.7063 13.2191 82.4587 14.59C82.3213 15.3763 82.0531 16.3508 81.3519 18.6156C80.8431 20.2621 80.3688 21.8011 80.3 22.043C80.0731 22.836 79.8875 23.4744 79.6056 24.3615C79.4544 24.8387 79.3031 25.3562 79.2619 25.504C79.1862 25.7863 79.1519 25.8804 78.9594 26.297C78.8975 26.4382 78.7463 26.9422 78.6225 27.4193C78.4987 27.8965 78.3544 28.3333 78.3131 28.3871C78.265 28.4408 78.2375 28.5752 78.2444 28.6761C78.265 28.8978 77.9762 29.7782 77.8525 29.8723C77.8044 29.9059 77.7288 30.1478 77.6875 30.4099C77.6462 30.6653 77.5706 31.0282 77.5225 31.2164C77.4675 31.3978 77.4056 31.6599 77.385 31.7876C77.3644 31.9153 77.2544 32.3253 77.1444 32.6949C76.89 33.5618 76.8006 34.3078 76.8694 34.9462C76.8969 35.2218 76.9244 35.6989 76.9244 36.008C76.9313 36.3373 76.9725 36.6599 77.0344 36.8078C77.0894 36.9355 77.1375 37.0968 77.1375 37.164C77.1375 37.2312 77.1787 37.3118 77.2269 37.3521C77.275 37.3925 77.3575 37.5806 77.4125 37.7688C77.5156 38.1317 77.66 38.293 78.0312 38.4476C78.2444 38.5349 78.4369 38.5349 79.6263 38.4476L80.9875 38.3535L81.0287 38.125C81.1181 37.6613 81.0287 37.1908 80.7744 36.8414C80.6438 36.6599 80.3688 36.2634 80.1625 35.9677C79.8669 35.5376 79.75 35.4166 79.6194 35.4166C79.4613 35.4166 79.4544 35.4234 79.5025 35.8333C79.5231 36.0685 79.5644 36.5188 79.585 36.8414L79.6331 37.4261L79.3994 37.5605C79.0762 37.7554 78.6019 37.7486 78.375 37.547C78.2787 37.4664 78.1619 37.258 78.1206 37.0766C78.0106 36.6868 78.0038 35.0269 78.1069 34.7648C78.1481 34.664 78.2169 34.3817 78.265 34.1398C78.3613 33.6962 78.9319 31.9758 79.1038 31.633C79.1588 31.5255 79.2 31.3844 79.2 31.3172C79.2 31.25 79.8806 29.3212 80.7194 27.0363C83.8544 18.4476 84.6244 16.2903 85.1125 14.7379C85.2087 14.422 85.1675 12.8091 85.0437 12.1976C84.9406 11.7002 84.0263 9.9059 83.7513 9.67068C83.6275 9.56315 83.4969 9.47579 83.4625 9.47579C83.3662 9.47579 83.38 8.81718 83.4762 8.31315L83.5588 7.88977L85.0369 7.17068C86.955 6.24326 87.6425 5.84003 87.8556 5.5309C88 5.30912 88.0137 5.22847 87.9863 4.67068C87.9656 4.1196 87.9313 3.99192 87.7113 3.55509C87.4294 3.00401 86.3913 1.70025 86.0544 1.46503C85.9306 1.38439 85.7244 1.21638 85.5938 1.09541C85.4631 0.974442 85.2156 0.806431 85.0437 0.712345C84.7412 0.557777 84.6725 0.551056 82.6719 0.510735C79.915 0.450249 67.4713 0.362885 43.2094 0.241917C32.1681 0.181431 18.8994 0.107506 13.7156 0.0671844C8.53875 0.0335808 3.96688 -1.90735e-05 3.56125 -1.90735e-05H2.82563L2.01438 0.880356ZM77.605 0.584656C77.4262 0.598099 77.1169 0.598099 76.9175 0.584656C76.7181 0.571217 76.8625 0.564495 77.2406 0.564495C77.6188 0.564495 77.7838 0.571217 77.605 0.584656ZM84.7412 0.739227C85.2019 0.840034 85.1125 0.91396 84.5762 0.866917C84.2875 0.840034 83.105 0.78627 81.95 0.745949C78.6637 0.624981 78.6431 0.618259 81.6544 0.651863C83.215 0.672024 84.6038 0.712345 84.7412 0.739227ZM6.85438 9.00536C6.90938 9.17337 6.985 9.39514 7.02625 9.50939C7.1775 9.95294 7.1775 9.94622 6.985 9.94622C6.63438 9.94622 6.16688 9.56315 6.08438 9.21369C6.03625 8.97847 6.11875 8.83063 6.35938 8.72982C6.63438 8.62229 6.75813 8.6895 6.85438 9.00536ZM45.2719 9.13305C45.3131 9.20697 44.5088 10.3494 44.4194 10.3494C44.3575 10.3494 44.0688 9.9731 44.0688 9.88573C44.0688 9.84541 44.0275 9.79165 43.9794 9.76477C43.9244 9.73788 43.8488 9.6102 43.8075 9.48923C43.7319 9.27417 43.7388 9.26073 43.9519 9.17337C44.1994 9.06584 45.21 9.03896 45.2719 9.13305ZM8.9925 9.3817C9.61125 9.6102 9.67313 9.62364 9.98938 9.54971C10.4294 9.45563 10.67 9.45563 11.3919 9.56987C11.7288 9.62364 12.7325 9.69084 13.6331 9.71772C14.5269 9.73788 15.2625 9.78493 15.2625 9.81853C15.2625 9.85213 15.8263 9.87901 16.5206 9.87901C18.1775 9.88573 19.1881 9.9731 19.2981 10.1277C19.36 10.2016 19.3875 10.5107 19.3875 11.0685V11.8951H18.5488C17.4763 11.8951 16.06 11.7406 11.8938 11.1559C9.3775 10.7997 8.49063 10.6586 8.28438 10.5511C8.14 10.4771 7.96125 10.4166 7.89938 10.4166C7.68625 10.4166 7.66563 10.1478 7.85125 9.6438C7.93375 9.42875 8.1675 9.13977 8.26375 9.13977C8.29813 9.13977 8.62125 9.24729 8.9925 9.3817ZM36.245 9.21369C36.3963 9.29433 37.4 9.36154 40.2875 9.47579C41.2913 9.51611 42.1988 9.56987 42.3019 9.59003C42.4944 9.63036 42.9688 10.0403 42.9688 10.168C42.9688 10.2016 43.0925 10.3763 43.2438 10.5511C43.395 10.7258 43.5188 10.9274 43.5188 10.9946C43.5188 11.0551 43.4981 11.0887 43.4706 11.0685C43.45 11.0416 43.3813 11.0618 43.3194 11.1156C43.1681 11.2433 41.5869 11.6263 41.2019 11.6263H40.8925L40.9406 11.2701C40.9681 11.082 41.0369 10.8669 41.0988 10.7997C41.2019 10.6855 41.195 10.6653 41.0094 10.5175C40.8925 10.4301 40.755 10.3562 40.7 10.3494C40.6381 10.3494 40.5556 10.3158 40.5144 10.2755C40.4731 10.2352 40.15 10.1882 39.7925 10.168C39.1119 10.1277 38.7338 10.2016 38.1425 10.4906C37.8469 10.6384 37.5169 11.2231 37.5788 11.4718C37.6131 11.586 37.5856 11.6263 37.4619 11.6532C37.235 11.707 30.4288 11.8279 28.0019 11.8279H25.9875L25.9944 11.3373C26.0013 10.4368 26.0975 9.6774 26.2144 9.56315C26.4825 9.30106 28.7169 9.17337 33.33 9.15321C35.2481 9.14648 36.1488 9.15993 36.245 9.21369ZM58.7125 9.40858C59.4137 9.44218 60.1906 9.47579 60.445 9.48251C60.7406 9.48923 60.94 9.52955 60.9881 9.58331C61.0294 9.63708 61.1188 9.6774 61.1806 9.6774C61.2425 9.6774 61.3525 9.72444 61.4212 9.77821C61.6344 9.9395 61.9369 9.89917 62.4044 9.6438C62.645 9.51611 62.8375 9.44218 62.8375 9.47579C62.8375 9.51611 62.9819 9.54299 63.1675 9.54299H63.4906L63.4494 10.1613C63.4081 10.7796 63.25 11.3105 63.0025 11.6734L62.8856 11.8481L59.1456 11.8078C57.09 11.7809 54.4844 11.7406 53.3638 11.7137L51.3219 11.6734L51.3425 11.4113C51.3769 11.0887 51.2325 10.9207 50.6481 10.5712C50.2563 10.336 50.2494 10.336 49.3763 10.3293C48.5031 10.3158 48.4894 10.3158 48.1525 10.5175C47.8431 10.7056 47.8156 10.7459 47.795 11.0148C47.7813 11.2164 47.8088 11.3441 47.8913 11.4314C47.9531 11.5054 47.9944 11.5793 47.9669 11.5994C47.8981 11.6734 46.1038 11.3441 45.7325 11.1962C45.4163 11.0618 45.3819 11.0349 45.4713 10.9543C45.5331 10.9072 45.5813 10.8333 45.5813 10.7863C45.5813 10.7392 45.7669 10.4368 45.9938 10.1142C46.2138 9.79165 46.4131 9.49595 46.42 9.46235C46.4475 9.39514 46.8944 9.43546 48.0563 9.60347C48.4138 9.65724 48.7644 9.63708 49.8094 9.51611C50.9988 9.36826 51.3975 9.35482 54.2781 9.3481C56.0175 9.3481 58.0112 9.37498 58.7125 9.40858ZM80.19 9.50267C80.1694 9.55643 80.2038 9.69084 80.2588 9.80509C80.3206 9.91262 80.3688 10.1075 80.3688 10.2352C80.3688 10.4637 80.3619 10.4704 79.9081 10.6115C79.6469 10.6855 78.7325 10.8736 77.8594 11.0215C76.9931 11.1693 75.5837 11.4247 74.7381 11.5927L73.1913 11.8951H71.555H69.9187L69.9531 11.7406C69.9737 11.6599 70.015 11.3037 70.0563 10.9543C70.0906 10.6048 70.1456 10.2218 70.18 10.1142L70.235 9.91262L72.9506 9.87229C76.4912 9.81181 78.1894 9.71772 79.2688 9.52283C79.7431 9.43546 80.1488 9.37498 80.1762 9.38842C80.2038 9.40186 80.2106 9.45563 80.19 9.50267ZM24.5575 9.87901C24.8188 10.0739 24.9563 10.5443 24.9563 11.2365V11.8279H22.7631C21.2919 11.8279 20.5494 11.8078 20.5219 11.754C20.4669 11.6734 20.4738 9.98654 20.5288 9.85213C20.5631 9.77148 20.9 9.75132 22.4744 9.74461C24.2963 9.73788 24.3925 9.74461 24.5575 9.87901ZM66.9625 9.98654C67.32 9.98654 67.9044 10.0134 68.255 10.047L68.8875 10.1008V10.6787C68.8875 11.008 68.8463 11.3306 68.7981 11.4247C68.6675 11.6868 68.1312 11.7607 66.1925 11.8078L64.4875 11.8481L64.5494 11.6532C64.5837 11.5457 64.6319 11.2701 64.6525 11.0416C64.6937 10.5914 64.8313 10.2016 65.0238 9.99326C65.1269 9.87229 65.1956 9.86557 65.725 9.91933C66.0481 9.94622 66.605 9.97982 66.9625 9.98654ZM6.42813 11.0215C6.50375 11.0954 6.63438 11.1626 6.71 11.1761C6.78563 11.1828 7.0125 11.2836 7.21875 11.3844C7.425 11.4919 7.755 11.6196 7.94063 11.6666C8.13313 11.7137 8.51813 11.8279 8.8 11.9287C9.08188 12.0228 9.3775 12.0968 9.45313 12.0968C9.53563 12.0968 9.63188 12.1304 9.66625 12.164C9.78313 12.2782 10.6769 12.4328 12.4781 12.6344C15.1044 12.9368 16.5069 13.0376 18.1088 13.0376H19.5731L19.6488 13.3871C19.69 13.582 19.745 13.8709 19.7656 14.0255C19.7863 14.1868 19.8206 14.4287 19.8413 14.5699L19.8825 14.8252L18.315 15.2083C16.8988 15.5443 16.7269 15.5712 16.5894 15.4839C16.5069 15.4301 16.3625 15.3898 16.2663 15.3898C16.1769 15.3898 16.0531 15.3494 16.005 15.2957C15.95 15.2486 15.8056 15.1882 15.675 15.168C15.5444 15.1478 15.2831 15.1008 15.0906 15.0605C14.905 15.0201 13.915 14.9126 12.8906 14.8185C11.2131 14.664 10.3125 14.5094 10.3125 14.375C10.3125 14.3481 10.175 14.3078 10.01 14.2876C9.845 14.2607 9.66625 14.1935 9.625 14.1465C9.57688 14.0927 9.515 14.0457 9.48063 14.0457C9.44625 14.0457 9.13688 13.8306 8.78625 13.5752L8.15375 13.1048H7.43875C6.68938 13.1048 6.52438 13.0578 6.07063 12.715L5.84375 12.5537V11.8279C5.84375 11.1559 5.8575 11.0954 6.00188 11.0013C6.20125 10.8602 6.25625 10.8602 6.42813 11.0215ZM40.2325 11.0416C40.26 11.0887 40.2875 11.2433 40.2875 11.3844V11.6465L39.93 11.5994C39.7306 11.5726 39.3938 11.5255 39.1875 11.4986C38.9813 11.4718 38.7338 11.4046 38.6375 11.3508C38.5413 11.297 38.4588 11.25 38.445 11.2433C38.4313 11.2365 38.4656 11.1626 38.5275 11.0752C38.6238 10.9274 38.6581 10.9207 39.4075 10.9408C39.8956 10.961 40.205 10.9946 40.2325 11.0416ZM50.2494 11.0618C50.3663 11.0887 50.4625 11.129 50.4625 11.1492C50.4625 11.2231 49.1975 11.6263 48.9706 11.6263C48.7713 11.6263 48.7575 11.6129 48.73 11.3239L48.7094 11.0215H49.3694C49.7338 11.0215 50.1325 11.0416 50.2494 11.0618ZM63.3187 11.5927C63.2775 11.6935 63.2294 11.7607 63.2088 11.7473C63.195 11.7271 63.2156 11.633 63.2569 11.5322C63.305 11.4382 63.3531 11.3709 63.3669 11.3844C63.3806 11.3978 63.36 11.4919 63.3187 11.5927ZM81.3931 11.4785C81.3313 11.5726 81.3381 11.6465 81.4275 11.8145C81.4894 11.9287 81.5375 12.0564 81.5375 12.1035C81.5375 12.1438 81.5925 12.2177 81.6544 12.2648C81.8262 12.3857 81.6888 12.6478 81.3381 12.8763C81.0563 13.0578 81.0219 13.0578 80.3825 12.9301C80.135 12.883 79.6125 13.0712 79.6125 13.2056C79.6125 13.3132 79.0556 13.8172 78.7944 13.9449C78.2925 14.1935 77.605 14.4019 75.7419 14.8857C73.3425 15.504 72.7031 15.6115 71.4656 15.6115C70.5512 15.6115 70.4756 15.6048 69.9325 15.4032C69.6231 15.2822 69.2931 15.1882 69.1969 15.1882C69.1075 15.1882 69.0181 15.1613 68.9975 15.1277C68.97 15.0941 68.9906 14.7648 69.0387 14.4019C69.1006 13.8911 69.1556 13.6962 69.2931 13.5215C69.6094 13.1048 69.685 13.0847 71.8438 13.0309C74.305 12.9704 75.2125 12.9166 75.6937 12.8024C76.4225 12.6344 76.7663 12.5739 77.2406 12.5269C77.5088 12.5067 77.7562 12.4664 77.7906 12.4462C77.88 12.3925 77.99 12.3656 78.375 12.3185C78.5469 12.2984 78.7463 12.2379 78.8219 12.1908C78.8975 12.1371 79.0419 12.0968 79.1519 12.0968C79.255 12.0968 79.4887 12.0228 79.6744 11.9355C79.8531 11.8414 80.1969 11.7204 80.4375 11.6599C80.685 11.5994 80.96 11.5054 81.0563 11.4583C81.1525 11.4046 81.2831 11.3642 81.3519 11.3575C81.4481 11.3575 81.455 11.3777 81.3931 11.4785ZM84.1156 11.6734C84.2119 12.1908 84.2325 13.0779 84.15 13.4408C84.0125 14.0591 83.545 15.625 83.0844 16.9691C82.8438 17.668 82.3625 19.1801 82.0188 20.3293C81.4688 22.1505 81.2625 22.7285 81.2625 22.4731C81.2625 22.3857 82.5206 18.2056 82.9469 16.9019C83.3181 15.7325 83.4006 15.3427 83.6619 13.3736C83.93 11.3911 83.9369 11.3441 84.0056 11.3911C84.04 11.4046 84.0881 11.539 84.1156 11.6734ZM59.0769 13.0107C62.0881 13.0443 62.3563 13.0578 62.3563 13.1586C62.3494 13.5215 62.15 14.8723 62.0881 14.9395C62.0537 14.9865 61.875 15.0605 61.6894 15.1075C61.5106 15.1546 61.2562 15.2419 61.1325 15.2957C61.0088 15.3494 60.8506 15.3898 60.7819 15.3898C60.7131 15.3898 60.555 15.4435 60.4244 15.504C60.1219 15.6519 59.3656 15.6519 58.85 15.504C58.3619 15.3629 57.3375 15.2352 55 15.0134C53.1438 14.8387 52.7106 14.8387 51.8375 14.9798C51.6313 15.0201 50.765 15.0672 49.9125 15.0941C48.2213 15.1411 47.6575 15.1008 46.1725 14.8118C45.4094 14.664 45.155 14.6438 44.4194 14.6707C43.945 14.6841 43.1338 14.7648 42.625 14.8387C40.7481 15.1209 37.7644 15.2083 36.465 15.0201C36.0938 14.9664 35.3031 14.8857 34.7119 14.8454L33.6394 14.7715L32.3056 15.1209C31.57 15.3158 30.7725 15.5309 30.525 15.5981C29.8856 15.7728 29.2806 15.7594 28.5725 15.5578C28.2494 15.4637 27.9331 15.3898 27.8781 15.3898C27.8163 15.3898 27.72 15.3629 27.6513 15.3226C27.5894 15.289 27.28 15.168 26.9706 15.047L26.4 14.8454V13.9247V13.004L30.8138 13.0242C33.2475 13.0309 36.2244 13.0107 37.4344 12.9771C39.6275 12.9166 52.8413 12.9368 59.0769 13.0107ZM8.29125 13.4476L8.42188 13.5954L8.21563 13.4946C8.10563 13.4341 7.96125 13.3736 7.90625 13.3535C7.84438 13.3333 7.87188 13.3132 7.98188 13.3132C8.085 13.3064 8.21563 13.3669 8.29125 13.4476ZM22.9694 13.4072C23.8563 13.4274 24.7088 13.461 24.8738 13.4812L25.1625 13.5148V14.3615V15.2083L23.7738 15.168C23.0038 15.1411 22.0688 15.1209 21.6838 15.1209H20.9894L20.9138 14.7782C20.8038 14.3145 20.8038 13.3938 20.9206 13.3468C20.9619 13.3266 21.0856 13.3266 21.1819 13.34C21.285 13.3535 22.0894 13.3871 22.9694 13.4072ZM67.0519 13.4408H67.7188V13.965C67.7188 14.254 67.6844 14.664 67.6431 14.8656L67.5675 15.2419L66.9694 15.2083C66 15.1613 63.6488 14.9933 63.6281 14.9731C63.6213 14.9597 63.635 14.7312 63.6556 14.4691C63.69 14.039 63.7244 13.9516 63.91 13.7769C64.2606 13.4274 64.5425 13.3669 65.5188 13.4072C65.9931 13.4274 66.6806 13.4408 67.0519 13.4408ZM24.7156 16.3777L25.0594 16.4314L25.0869 16.7339C25.0938 16.9019 25.0731 17.4126 25.0319 17.8763C24.9081 19.2607 24.7088 23.9583 24.6538 26.6129C24.64 27.332 24.5988 29.2809 24.5575 30.9476C24.5163 32.6075 24.475 34.2271 24.4681 34.543C24.4544 35.1478 24.3994 35.3494 24.2344 35.3494C24.0694 35.3494 24.1175 35.4704 24.2894 35.4973C24.4338 35.5175 24.4406 35.5376 24.42 36.1895C24.3925 37.1707 24.2688 44.2003 24.2688 45.0201C24.2688 45.4032 24.255 45.7056 24.2344 45.6922C24.2206 45.672 24.1588 45.1478 24.1038 44.5161C24.0075 43.4677 23.7738 41.7675 23.4438 39.7379C23.3681 39.2809 23.3063 38.7365 23.3063 38.5282C23.3063 38.3132 23.2719 38.0309 23.2375 37.9032C23.1481 37.6075 22.88 35.3427 22.8869 34.9597C22.8938 34.8051 22.8663 34.6774 22.8319 34.6774C22.7975 34.6774 22.7494 34.5027 22.7219 34.2876C22.6944 34.0793 22.6119 33.6559 22.5431 33.3468C22.4675 33.0443 22.3781 32.4731 22.3438 32.0699C22.3094 31.6734 22.2544 31.1828 22.2131 30.9812C22.1788 30.7796 22.1169 30.2486 22.0688 29.8051C22.0275 29.3615 21.945 28.8105 21.89 28.582C21.835 28.3535 21.7938 28.0175 21.7938 27.8293C21.7938 27.6411 21.7525 27.4597 21.7044 27.4059C21.6425 27.3454 21.5944 27.0296 21.5669 26.4449C21.5394 25.961 21.4706 25.3158 21.4088 25C21.2231 23.9986 21.175 23.6425 21.1063 22.715C21.065 22.2177 20.9894 21.3642 20.9344 20.8266C20.8106 19.6505 20.7969 16.9892 20.9069 16.6599C21.0581 16.2365 20.9825 16.25 22.7494 16.2836C23.6431 16.3037 24.53 16.3441 24.7156 16.3777ZM67.0244 16.3777L67.6019 16.4852L67.5606 17.6344C67.4987 19.1465 67.32 21.2903 67.2375 21.4449C67.1963 21.5121 67.1687 21.6801 67.1687 21.8279C67.1687 21.9758 67.1206 22.2043 67.0588 22.3454C67.0038 22.4798 66.8938 22.9301 66.825 23.3468C66.7494 23.7567 66.5912 24.3951 66.4744 24.7648C66.3575 25.1344 66.2337 25.6183 66.2063 25.84C66.1719 26.0618 66.0275 26.6398 65.8694 27.1304C65.7181 27.6142 65.5188 28.3535 65.4225 28.7701C65.3262 29.1801 65.1956 29.6035 65.1269 29.6976C65.0169 29.8521 64.9344 30.168 64.6869 31.3844C64.6456 31.586 64.4944 32.1438 64.3431 32.6209C64.1988 33.1048 64.075 33.5685 64.075 33.6559C64.075 33.7365 64.0338 33.8911 63.9788 33.9919C63.9306 34.0927 63.855 34.3548 63.8069 34.5833C63.7656 34.8118 63.6694 35.1209 63.5938 35.2688C63.5181 35.4234 63.4562 35.672 63.4562 35.8266C63.4562 35.9812 62.9956 37.9368 62.425 40.1747C61.8613 42.4059 61.3869 44.3615 61.3869 44.5161C61.38 44.6908 61.3662 44.7312 61.3456 44.6236C61.3319 44.5228 61.4419 43.2258 61.5931 41.7339C62.1294 36.4449 62.2256 35.4771 62.2875 34.7244C62.3219 34.3145 62.3975 33.5618 62.4525 33.0511C62.5144 32.547 62.6519 30.961 62.7687 29.5228C63.1125 25.1882 63.525 20.7392 63.5938 20.6183C63.635 20.5511 63.6625 19.6304 63.6625 18.4543V16.4113L64.1988 16.3642C64.4875 16.3373 64.7625 16.3105 64.7969 16.297C65.01 16.2231 66.5156 16.2769 67.0244 16.3777ZM22.3919 47.1236C22.3713 47.1774 22.3506 47.1572 22.3506 47.0833C22.3438 47.0094 22.3644 46.9691 22.385 46.996C22.4056 47.0161 22.4125 47.0766 22.3919 47.1236Z" fill="white"/>
</svg>
