<svg width="71" height="70" viewBox="0 0 71 70" fill="none" xmlns="http://www.w3.org/2000/svg">
<path d="M0.0277234 0.0669861C0.0110828 0.106064 0.00553589 15.8533 0.0110828 35.0558L0.0277234 69.9721L35.5166 69.9888L71 70V35V0H35.5277C7.19983 0 0.044364 0.0167465 0.0277234 0.0669861ZM65.259 2.68501C65.1369 2.74641 60.6828 4.7504 55.3578 7.13955L45.6785 11.488L45.6397 12.5375C45.6175 13.118 45.5731 18.4266 45.5398 24.3381C45.5066 30.2496 45.4566 38.0869 45.4289 41.7544C45.4012 45.4219 45.3734 50.2727 45.3623 52.5279L45.3457 56.6252L46.6492 57.1443C47.3648 57.429 51.3474 58.992 55.4965 60.622C69.2472 66.0255 67.8937 65.4785 67.8937 65.6236V65.7576H36.0713C18.5709 65.7576 4.26554 65.7464 4.27663 65.7297C4.29327 65.7185 5.16413 65.3668 6.21249 64.9537C7.2664 64.5407 12.253 62.5813 17.3007 60.5997C22.3484 58.6124 26.4863 56.9825 26.4974 56.9713C26.5141 56.9545 26.4641 49.0949 26.3421 32.3764C26.3088 27.7544 26.2644 21.2512 26.2478 17.9187L26.209 11.862L24.9887 11.315C24.3175 11.0136 19.7136 8.94258 14.7547 6.71531C9.79577 4.48804 5.70218 2.64594 5.6578 2.61803C5.61343 2.59011 18.6763 2.57336 35.5277 2.57336C65.3977 2.57336 65.4809 2.57336 65.259 2.68501ZM66.4183 12.8947C66.4682 16.9027 66.5181 20.4864 66.5348 20.866C66.5569 21.4075 66.5514 21.5582 66.4904 21.5805C66.2962 21.6531 55.2691 23.7018 55.2302 23.6738C55.0971 23.5455 55.0361 8.73046 55.1692 8.59649C55.2025 8.563 57.7152 7.4689 60.7438 6.17384L66.2574 3.8126L66.2962 4.71133C66.3129 5.20814 66.3739 8.88676 66.4183 12.8947ZM11.1548 6.54785L16.6684 8.90909L16.7016 9.51754C16.8015 11.2368 16.7294 23.9362 16.6184 24.0423C16.5907 24.0702 5.38046 21.9545 5.34163 21.9155C5.31944 21.8931 5.34718 18.5941 5.3971 14.5805C5.50804 6.32456 5.54686 4.18661 5.60233 4.18661C5.62452 4.18661 8.12061 5.24721 11.1548 6.54785ZM54.4315 23.8357C54.4093 23.8581 52.6176 24.2097 50.4488 24.6172C48.2855 25.0191 46.4495 25.3652 46.3774 25.382L46.2443 25.4155L46.272 18.9011C46.2887 15.3174 46.3164 12.3756 46.333 12.3589C46.3441 12.3421 48.1635 11.5606 50.3712 10.6116L54.3871 8.89235L54.4315 16.3445C54.4537 20.4418 54.4537 23.8134 54.4315 23.8357ZM21.5496 10.9968C23.7184 11.9234 25.499 12.6938 25.5156 12.7105C25.5323 12.7273 25.5544 15.6635 25.5711 19.236C25.5933 24.3325 25.5822 25.7337 25.5323 25.7337C25.3714 25.7337 17.4449 24.2153 17.4116 24.1818C17.395 24.1595 17.3894 20.7935 17.4061 16.7018C17.4283 9.85806 17.4394 9.26077 17.5226 9.2831C17.5725 9.29426 19.3863 10.0702 21.5496 10.9968ZM66.4737 25.8006C66.5237 28.5638 66.6679 39.4211 66.679 40.8333L66.6845 41.9498L66.5237 41.933C66.4405 41.9274 64.6987 41.7823 62.6519 41.6093C56.1177 41.0622 55.3633 40.9952 55.319 40.9506C55.2968 40.9282 55.2635 37.445 55.2524 33.2137L55.2358 25.5159L55.3633 25.4825C55.4909 25.4545 57.4379 25.1419 63.373 24.1986C64.8374 23.9641 66.0633 23.7632 66.091 23.752C66.1243 23.7408 66.213 23.7297 66.2907 23.7297L66.4405 23.7241L66.4737 25.8006ZM7.66577 24.4163C8.89718 24.6172 11.3378 25.008 13.0906 25.2871C14.8434 25.5662 16.3522 25.8118 16.4354 25.8341L16.5962 25.8732L16.5851 33.5766C16.5851 37.8134 16.563 41.2967 16.5408 41.3134C16.4964 41.3581 5.19741 42.3126 5.16413 42.2791C5.13085 42.2456 5.38046 24.059 5.41374 24.059C5.42483 24.059 6.43436 24.2209 7.66577 24.4163ZM54.4093 35.0112C54.4093 38.26 54.4093 40.9171 54.4037 40.9171C54.3926 40.9171 52.6176 40.7663 50.4488 40.5821C48.2855 40.3979 46.4495 40.2472 46.3774 40.2472H46.2443L46.272 33.6045C46.2831 29.9538 46.3053 26.9561 46.3219 26.9394C46.333 26.9282 48.1413 26.6324 50.3379 26.2807L54.3316 25.6443L54.3649 27.3804C54.3871 28.3293 54.4037 31.7679 54.4093 35.0112ZM21.5773 26.6435L25.4879 27.2743L25.5267 27.5199C25.5655 27.799 25.5988 40.5207 25.56 40.5598C25.5323 40.5821 17.7666 41.252 17.5281 41.252C17.4172 41.252 17.4172 41.2073 17.4172 38.3604C17.4172 36.7751 17.4338 33.3477 17.456 30.7408C17.4893 26.4761 17.5004 26.0128 17.578 26.0128C17.628 26.0183 19.4251 26.2975 21.5773 26.6435ZM50.0661 42.3684C54.8919 42.9266 54.3982 42.8485 54.4426 43.0271C54.498 43.2783 54.5757 55.4641 54.5258 57.0662C54.5036 57.8923 54.4703 58.5789 54.4537 58.5901C54.4426 58.6069 52.5566 57.9314 50.2769 57.0941L46.1223 55.5646V53.8788C46.1223 49.0949 46.15 41.9219 46.1722 41.9219C46.1833 41.9219 47.9361 42.1228 50.0661 42.3684ZM25.682 45.0311C25.682 46.5606 25.6987 49.6308 25.7208 51.8581L25.7541 55.9051L21.6827 57.4011C19.4418 58.2217 17.5614 58.9083 17.4948 58.925C17.3839 58.953 17.3783 58.9306 17.3451 58.4394C17.2452 57.0718 17.3229 43.3285 17.4283 43.2337C17.4394 43.2281 19.2809 43.0048 21.5219 42.7424C23.7628 42.4801 25.6155 42.2679 25.6432 42.2624C25.6654 42.2568 25.682 43.5072 25.682 45.0311ZM61.1155 43.6467C64.2383 44.0096 66.801 44.3222 66.8176 44.3389C66.8509 44.3724 66.8898 46.7727 67.0007 55.2632C67.034 57.6411 67.0784 60.4155 67.095 61.4258L67.1283 63.2624L67.0007 63.2289C66.9341 63.2121 64.2605 62.2352 61.06 61.0574L55.2469 58.9195V54.9282C55.2469 52.7344 55.2302 49.1451 55.208 46.9569L55.1748 42.9825H55.3079C55.38 42.9825 57.9926 43.2839 61.1155 43.6467ZM16.6129 51.2831C16.5907 55.6707 16.563 59.2656 16.5574 59.2711C16.5297 59.3046 4.74811 63.6308 4.73147 63.6196C4.72593 63.6085 4.74257 61.9952 4.77585 60.0359C4.80358 58.071 4.8646 53.8174 4.90897 50.5797C4.95335 47.3421 4.99772 44.6906 5.00882 44.6794C5.01991 44.6683 7.53265 44.3724 10.5945 44.0152C13.6619 43.6635 16.2191 43.362 16.2801 43.3509C16.3411 43.3397 16.452 43.3285 16.5241 43.323L16.6517 43.3174L16.6129 51.2831Z" fill="white"/>
</svg>
